<svg width="50" height="57" viewBox="0 0 50 57" fill="none" xmlns="http://www.w3.org/2000/svg">
<path d="M46.3808 43.2952C46.4042 43.2128 46.4202 43.1259 46.4202 43.0344V12.8583C46.4202 12.7663 46.4042 12.6788 46.3803 12.5959C46.3768 12.5845 46.3748 12.5731 46.3709 12.5618C46.339 12.4646 46.2921 12.3772 46.2333 12.3005C46.2294 12.2954 46.2289 12.2891 46.2249 12.284C46.2224 12.2812 46.2194 12.28 46.2169 12.2772C46.1541 12.2011 46.0799 12.1397 45.9967 12.0937C45.9902 12.0903 45.9852 12.0858 45.9787 12.0824C45.9 12.0421 45.8143 12.0193 45.7242 12.0125C45.7152 12.0119 45.7067 12.0097 45.6977 12.0097C45.6893 12.0091 45.6818 12.0068 45.6733 12.0068H4.21758C4.20911 12.0068 4.20114 12.0091 4.19267 12.0097C4.1847 12.0102 4.17672 12.0119 4.16875 12.0125C4.07757 12.0193 3.99038 12.0426 3.91067 12.0835C3.90568 12.0858 3.9017 12.0898 3.89671 12.092C3.81201 12.138 3.73678 12.2005 3.67351 12.2778C3.67101 12.2806 3.66802 12.2812 3.66553 12.284C3.66155 12.2886 3.66105 12.2948 3.65706 12.2999C3.59827 12.3766 3.55094 12.4646 3.51905 12.5618C3.51507 12.5731 3.51307 12.5845 3.50959 12.5964C3.48567 12.6793 3.46973 12.7668 3.46973 12.8588V43.0356C3.46973 43.1287 3.48617 43.2173 3.51058 43.3014C3.51407 43.3128 3.51606 43.3236 3.51955 43.3349C3.55194 43.4326 3.59977 43.5206 3.65906 43.5973C3.66254 43.6019 3.66354 43.6076 3.66703 43.6121C3.67002 43.6161 3.674 43.6183 3.67749 43.6223C3.7019 43.6513 3.72881 43.6769 3.75671 43.7018C3.76917 43.7126 3.78013 43.7257 3.79308 43.7359C3.82597 43.762 3.86134 43.7831 3.89771 43.8024C3.90668 43.8069 3.91465 43.8143 3.92362 43.8183C4.0138 43.862 4.11295 43.887 4.21708 43.887H45.6723C45.7765 43.887 45.8756 43.8626 45.9658 43.8183C45.9797 43.8115 45.9927 43.8012 46.0061 43.7933C46.037 43.7757 46.0679 43.7575 46.0963 43.7354C46.1113 43.7234 46.1247 43.7081 46.1392 43.695C46.1646 43.6717 46.1895 43.6485 46.2114 43.6218C46.2154 43.6172 46.2199 43.6138 46.2239 43.6093C46.2279 43.6041 46.2289 43.5973 46.2328 43.5922C46.2911 43.5161 46.338 43.4286 46.3699 43.3321C46.3748 43.3196 46.3773 43.3076 46.3808 43.2952ZM4.96493 14.7906L17.5439 27.8893L4.96493 41.0924V14.7906ZM30.7467 27.2474C30.6948 27.2861 30.64 27.3184 30.5967 27.373C30.5803 27.3934 30.5748 27.4201 30.5603 27.4417L24.9452 33.2887L6.14376 13.7103H43.7467L30.7467 27.2474ZM18.652 29.0429L24.441 35.0711C24.584 35.2199 24.7643 35.2943 24.9452 35.2943C25.1261 35.2943 25.3064 35.2199 25.4489 35.0711L31.1662 29.1179L43.7432 42.183H6.1328L18.652 29.0429ZM32.2748 27.9637L44.9255 14.7906V41.1061L32.2748 27.9637Z" fill="black"/>
</svg>
