<svg width="50" height="50" viewBox="0 0 50 50" fill="none" xmlns="http://www.w3.org/2000/svg">
<g clip-path="url(#clip0)">
<path d="M42.4801 50.0025H42.0001C31.6778 48.8752 21.9827 44.49 14.3201 37.4825L12.5801 35.7425C5.53922 28.0717 1.13183 18.3531 5.40484e-05 8.00254C-0.0997061 7.08671 0.10736 6.16366 0.58877 5.37821C1.07018 4.59275 1.7987 3.98931 2.66005 3.66254L11.6401 0.182545C12.2257 -0.0438163 12.8738 -0.0488575 13.4628 0.168366C14.0519 0.38559 14.5416 0.81017 14.8401 1.36254L21.1401 12.9425C21.4038 13.4325 21.5034 13.9942 21.4242 14.545C21.345 15.0958 21.0912 15.6067 20.7001 16.0025L14.9401 21.6625C14.8486 21.768 14.7982 21.9029 14.7982 22.0425C14.7982 22.1821 14.8486 22.3171 14.9401 22.4225C16.6767 24.969 18.6093 27.3763 20.7201 29.6225C22.8847 31.6564 25.2125 33.5092 27.6801 35.1625C27.7841 35.2487 27.915 35.2959 28.0501 35.2959C28.1852 35.2959 28.316 35.2487 28.4201 35.1625L34.0001 29.3025C34.395 28.9037 34.9084 28.6433 35.4636 28.5604C36.0187 28.4775 36.5858 28.5765 37.0801 28.8425L48.6601 35.1425C49.2094 35.4441 49.6312 35.934 49.8481 36.522C50.0649 37.11 50.062 37.7565 49.8401 38.3425L46.3601 47.3225C46.0605 48.1094 45.5292 48.7869 44.8365 49.2654C44.1437 49.7439 43.322 50.0009 42.4801 50.0025ZM15.7001 36.0025C23.042 42.7163 32.3303 46.9192 42.2201 48.0025C42.6965 48.0559 43.1772 47.9493 43.5863 47.6994C43.9955 47.4496 44.3099 47.0707 44.4801 46.6225L48.0001 37.6425C48.0515 37.5114 48.0535 37.366 48.0057 37.2335C47.9579 37.101 47.8634 36.9905 47.7401 36.9225L36.1001 30.6025C35.9887 30.5397 35.8596 30.5154 35.7331 30.5335C35.6065 30.5516 35.4894 30.611 35.4001 30.7025L29.7401 36.4625C29.321 36.8966 28.7622 37.1688 28.1621 37.231C27.562 37.2932 26.9592 37.1414 26.4601 36.8025C23.8919 35.0782 21.4703 33.145 19.2201 31.0225C17.027 28.6833 15.0208 26.1756 13.2201 23.5225C12.8772 23.0225 12.7213 22.4178 12.7798 21.8143C12.8383 21.2109 13.1075 20.6473 13.5401 20.2225L19.3001 14.5825C19.3916 14.4932 19.451 14.3761 19.4691 14.2495C19.4871 14.1229 19.4629 13.9939 19.4001 13.8825L13.0801 2.30254C13.0188 2.17198 12.9111 2.0689 12.778 2.01344C12.6449 1.95797 12.4959 1.95409 12.3601 2.00254L3.38005 5.52254C2.93184 5.69268 2.55297 6.0071 2.30312 6.41627C2.05327 6.82544 1.94665 7.3061 2.00005 7.78254C3.08064 17.6789 7.28356 26.9744 14.0001 34.3225L15.7001 36.0025Z" fill="#0E1D25"/>
</g>
<defs>
<clipPath id="clip0">
<rect width="50" height="50" fill="white"/>
</clipPath>
</defs>
</svg>
