<svg width="100" height="100" viewBox="0 0 100 100" fill="none" xmlns="http://www.w3.org/2000/svg">
<path d="M22.6849 80.1369H40.3082C40.4389 80.1369 40.5644 80.1889 40.6569 80.2813C40.7493 80.3738 40.8013 80.4993 40.8013 80.6301V89.4177H17.6575V80.6164C17.661 80.4879 17.7146 80.366 17.8067 80.2765C17.8988 80.1869 18.0222 80.1369 18.1506 80.1369H22.6849Z" fill="#A8CBEB"/>
<path d="M50.5753 80.1369H69.7534C69.8842 80.1369 70.0096 80.1889 70.1021 80.2814C70.1946 80.3739 70.2466 80.4993 70.2466 80.6301V89.4177H47.137V80.6164C47.137 80.4856 47.1889 80.3601 47.2814 80.2677C47.3739 80.1752 47.4993 80.1232 47.6301 80.1232H50.5753V80.1369Z" fill="#A8CBEB"/>
<path d="M71.7123 53.4244L71.2876 53.7874C71.1095 53.9381 70.9109 54.1025 70.7123 54.2737L70.2671 43.5614C70.2051 42.1684 70.5382 40.7864 71.2277 39.5745C71.9172 38.3627 72.9352 37.3704 74.1643 36.712L75.6917 35.8901C75.7348 35.8593 75.7854 35.8406 75.8383 35.8361C75.8911 35.8316 75.9441 35.8414 75.9918 35.8646C76.0395 35.8877 76.0801 35.9233 76.1092 35.9676C76.1384 36.0119 76.1551 36.0632 76.1575 36.1162V39.7258C75.9213 40.3496 75.7536 40.9972 75.6575 41.6573L71.7123 53.4244Z" fill="white"/>
<path d="M66.7534 57.4041L66.8836 57.4795L67.0274 57.3562C68.0617 56.4863 69.5069 55.3014 70.7055 54.3014C70.9041 54.1233 71.1028 53.9658 71.2808 53.8151L71.7123 53.4247L75.6644 41.6302C75.7605 40.9701 75.9282 40.3225 76.1644 39.6987C76.7901 37.7318 77.9812 35.9928 79.5891 34.6987C81.0822 33.6302 83.6986 32.6987 84.4658 33.5548C84.5579 33.6793 84.6237 33.8212 84.659 33.972C84.6943 34.1227 84.6985 34.2791 84.6712 34.4315C83.2649 40.6872 81.8562 46.9475 80.4452 53.2124C78.6233 56.637 76.5548 60.2124 74.1849 63.9247C71.2945 68.4658 65.4795 76.2535 65.4452 76.2535L65.2603 80.137H50.5754L50.3699 76.2124C50.1232 72.8247 50.2288 69.4206 50.685 66.0548L50.9178 64.3836C51.1942 62.226 52.2996 60.2607 54 58.9041L66.1302 49.2466C66.1494 49.2278 66.1752 49.2172 66.2021 49.2172C66.229 49.2172 66.2548 49.2278 66.274 49.2466C67.1296 50.3664 67.6425 51.7101 67.7507 53.1153C67.8589 54.5204 67.5577 55.9268 66.8836 57.1644L66.7534 57.4041Z" fill="white"/>
<path d="M17.6712 43.5613L17.2397 54.2874L16.6575 53.8079L16.2328 53.4243L12.2876 41.6504C12.1856 40.9937 12.0181 40.349 11.7876 39.7257V36.1298C11.79 36.0769 11.8067 36.0255 11.8358 35.9813C11.865 35.937 11.9055 35.9014 11.9532 35.8782C12.0009 35.8551 12.054 35.8453 12.1068 35.8498C12.1596 35.8543 12.2103 35.8729 12.2534 35.9038L13.7876 36.7257C15.0114 37.3855 16.0248 38.3766 16.7116 39.5855C17.3984 40.7944 17.7309 42.1722 17.6712 43.5613Z" fill="white"/>
<path d="M21.1849 57.4041L21.0616 57.1781C20.3868 55.9403 20.0858 54.5333 20.1952 53.1277C20.3047 51.7222 20.8198 50.3787 21.6781 49.2603C21.687 49.2512 21.6976 49.2439 21.7094 49.239C21.7212 49.234 21.7338 49.2315 21.7465 49.2315C21.7593 49.2315 21.7719 49.234 21.7837 49.239C21.7955 49.2439 21.8061 49.2512 21.815 49.2603L33.9452 58.9041C35.6445 60.2616 36.7496 62.2264 37.0274 64.3836L37.2603 66.089C37.7132 69.4528 37.8188 72.8543 37.5753 76.2397L37.363 80.137H22.6849L22.4794 76.2877C22.4794 76.2877 16.6438 68.4932 13.7397 63.9452C11.3698 60.2329 9.30134 56.6438 7.48627 53.2329L3.26025 34.4521C3.23104 34.2975 3.23423 34.1386 3.2696 33.9853C3.30496 33.832 3.37175 33.6878 3.46573 33.5617C4.1986 32.7055 6.84929 33.637 8.34929 34.7055C9.95537 36.0013 11.1461 37.7397 11.7739 39.7055C12.0049 40.3309 12.1724 40.978 12.2739 41.637L16.2329 53.4247L16.6575 53.7877L17.2397 54.2671L20.9109 57.3288L21.0616 57.4521L21.1849 57.4041Z" fill="white"/>
<path d="M29.6713 30.3152C29.6713 33.0788 30.4907 35.7802 32.0261 38.078C33.5614 40.3758 35.7436 42.1667 38.2968 43.2242C40.8499 44.2818 43.6594 44.5585 46.3698 44.0194C49.0802 43.4802 51.5699 42.1495 53.524 40.1954C55.4781 38.2413 56.8089 35.7516 57.348 33.0412C57.8871 30.3307 57.6104 27.5213 56.5529 24.9682C55.4953 22.415 53.7044 20.2328 51.4066 18.6975C49.1088 17.1621 46.4074 16.3426 43.6439 16.3426C39.9381 16.3426 36.3841 17.8148 33.7637 20.4351C31.1434 23.0555 29.6713 26.6095 29.6713 30.3152ZM43.6439 49.2194C39.905 49.2194 36.2501 48.1106 33.1413 46.0334C30.0325 43.9562 27.6096 41.0038 26.1787 37.5495C24.7479 34.0953 24.3736 30.2943 25.103 26.6272C25.8324 22.9602 27.6329 19.5918 30.2766 16.948C32.9204 14.3042 36.2888 12.5038 39.9559 11.7744C43.6229 11.045 47.4239 11.4193 50.8782 12.8501C54.3324 14.2809 57.2849 16.7039 59.3621 19.8127C61.4393 22.9215 62.548 26.5764 62.548 30.3152C62.548 35.3289 60.5563 40.1373 57.0111 43.6825C53.4659 47.2277 48.6575 49.2194 43.6439 49.2194Z" fill="white"/>
<path d="M43.6439 43.74C51.0581 43.74 57.0686 37.7295 57.0686 30.3153C57.0686 22.901 51.0581 16.8906 43.6439 16.8906C36.2297 16.8906 30.2192 22.901 30.2192 30.3153C30.2192 37.7295 36.2297 43.74 43.6439 43.74Z" fill="#ED9180"/>
<path d="M59.3356 63.4928L66.5342 57.7531L66.7534 57.3969L66.8766 57.1709C67.5507 55.9333 67.8519 54.5269 67.7437 53.1217C67.6356 51.7166 67.1227 50.3729 66.2671 49.2531C66.2479 49.2342 66.222 49.2237 66.1951 49.2237C66.1682 49.2237 66.1424 49.2342 66.1232 49.2531L53.9999 58.9037C52.2996 60.2603 51.1941 62.2256 50.9178 64.3832L50.6849 66.0544C50.2292 69.418 50.1236 72.8198 50.3698 76.2051L50.5753 80.1298V80.2531" stroke="black" stroke-width="2.4" stroke-miterlimit="10"/>
<path d="M66.8904 57.4795L67.0342 57.3562C68.0685 56.4863 69.5137 55.3014 70.7123 54.3014C70.9109 54.1233 71.1096 53.9658 71.2876 53.8151L71.7123 53.4247L75.6644 41.6302C75.7605 40.9701 75.9282 40.3225 76.1644 39.6987C76.79 37.7318 77.9811 35.9928 79.589 34.6987C81.0822 33.6302 83.6986 32.6987 84.4657 33.5548C84.5579 33.6793 84.6236 33.8212 84.659 33.972C84.6943 34.1227 84.6985 34.2791 84.6712 34.4315C83.2648 40.6872 81.8561 46.9475 80.4452 53.2124C78.6233 56.637 76.5548 60.2124 74.1849 63.9247C71.5068 68.1233 66.3356 75.0822 65.5479 76.1302C65.4822 76.2174 65.444 76.3224 65.4383 76.4315L65.2603 80.137" stroke="black" stroke-width="2.4" stroke-miterlimit="10"/>
<path d="M70.6986 54.2874L70.2671 43.5614C70.2051 42.1684 70.5382 40.7864 71.2277 39.5745C71.9172 38.3627 72.9352 37.3704 74.1643 36.712L75.6917 35.8901C75.7348 35.8593 75.7854 35.8406 75.8383 35.8361C75.8911 35.8316 75.9441 35.8414 75.9918 35.8646C76.0395 35.8877 76.0801 35.9233 76.1092 35.9676C76.1384 36.0119 76.1551 36.0632 76.1575 36.1162V39.7257" stroke="black" stroke-width="2.4" stroke-miterlimit="10"/>
<path d="M28.6028 63.4932L21.411 57.7534L21.185 57.3973L21.0617 57.1713C20.3869 55.9335 20.0859 54.5264 20.1953 53.1209C20.3047 51.7154 20.8199 50.3719 21.6781 49.2535C21.6871 49.2443 21.6977 49.2371 21.7095 49.2322C21.7212 49.2272 21.7339 49.2247 21.7466 49.2247C21.7594 49.2247 21.772 49.2272 21.7838 49.2322C21.7955 49.2371 21.8062 49.2443 21.8151 49.2535L33.9453 58.9041C35.6445 60.2617 36.7497 62.2264 37.0275 64.3836L37.2603 66.089C37.7133 69.4528 37.8189 72.8543 37.5754 76.2397L37.3631 80.137V80.2603" stroke="black" stroke-width="2.4" stroke-miterlimit="10"/>
<path d="M21.0547 57.4793L20.904 57.356L17.2328 54.2944L16.6506 53.8149L16.2328 53.4245L12.2876 41.6505C12.1856 40.9939 12.0181 40.3491 11.7876 39.7259C11.1597 37.7601 9.969 36.0216 8.36292 34.7259C6.84922 33.6574 4.19854 32.7259 3.46566 33.5615C3.37352 33.6859 3.30776 33.8279 3.27243 33.9786C3.2371 34.1294 3.23293 34.2858 3.26018 34.4382L7.49306 53.219C9.30813 56.6437 11.3766 60.219 13.7465 63.9313C16.4246 68.13 21.5958 75.0889 22.3835 76.1368C22.4492 76.2241 22.4874 76.3291 22.4931 76.4382L22.6848 80.1368V80.2601" stroke="black" stroke-width="2.4" stroke-miterlimit="10"/>
<path d="M17.2397 54.2874L17.6712 43.5614C17.7329 42.1693 17.4006 40.788 16.7124 39.5764C16.0242 38.3648 15.008 37.372 13.7808 36.712L12.2465 35.8901C12.2034 35.8593 12.1528 35.8406 12.1 35.8361C12.0471 35.8316 11.9941 35.8414 11.9464 35.8646C11.8987 35.8877 11.8581 35.9233 11.829 35.9676C11.7998 36.0119 11.7832 36.0632 11.7808 36.1162V39.7257" stroke="black" stroke-width="2.4" stroke-miterlimit="10"/>
<path d="M43.6439 49.2193C54.0843 49.2193 62.548 40.7557 62.548 30.3152C62.548 19.8748 54.0843 11.4111 43.6439 11.4111C33.2034 11.4111 24.7397 19.8748 24.7397 30.3152C24.7397 40.7557 33.2034 49.2193 43.6439 49.2193Z" stroke="black" stroke-width="2.4" stroke-miterlimit="10"/>
<path d="M43.7809 30.0408C45.7466 30.0408 47.3425 31.4518 47.3425 33.1915C47.3425 34.9312 45.7466 36.3422 43.7809 36.3422C41.8151 36.3422 40.2192 34.9312 40.2192 33.1915" stroke="black" stroke-width="2.4" stroke-miterlimit="10" stroke-linecap="round"/>
<path d="M47.3425 26.8909C47.3425 25.1511 45.7466 23.7402 43.7809 23.7402H43.7398C41.8014 23.7402 40.2192 25.158 40.2192 26.8909C40.2192 28.6237 41.822 30.0415 43.7809 30.0415" stroke="black" stroke-width="2.4" stroke-miterlimit="10" stroke-linecap="round"/>
<path d="M43.7397 22.1504V23.7394V23.7942" stroke="black" stroke-width="2.4" stroke-miterlimit="10" stroke-linecap="round"/>
<path d="M43.7397 36.3975V38.0414" stroke="black" stroke-width="2.4" stroke-miterlimit="10" stroke-linecap="round"/>
<path d="M84.4658 23.6982L86.6576 25.89" stroke="#ED9180" stroke-width="1.6" stroke-miterlimit="10" stroke-linecap="round"/>
<path d="M86.6576 23.6982L84.4658 25.89" stroke="#ED9180" stroke-width="1.6" stroke-miterlimit="10" stroke-linecap="round"/>
<path d="M95.6575 29.9997C96.414 29.9997 97.0273 29.3864 97.0273 28.6298C97.0273 27.8733 96.414 27.2599 95.6575 27.2599C94.9009 27.2599 94.2876 27.8733 94.2876 28.6298C94.2876 29.3864 94.9009 29.9997 95.6575 29.9997Z" stroke="black" stroke-width="1.6" stroke-miterlimit="10" stroke-linecap="round"/>
<path d="M90.589 38.315C91.1943 38.315 91.6849 37.8244 91.6849 37.2191C91.6849 36.6139 91.1943 36.1232 90.589 36.1232C89.9838 36.1232 89.4932 36.6139 89.4932 37.2191C89.4932 37.8244 89.9838 38.315 90.589 38.315Z" fill="black"/>
<path d="M8.90405 77.3974V82.192" stroke="black" stroke-width="2" stroke-miterlimit="10" stroke-linecap="round"/>
<path d="M10.959 80.1369H6.84937" stroke="black" stroke-width="2" stroke-miterlimit="10" stroke-linecap="round"/>
<path d="M26.3835 11.9591C26.9887 11.9591 27.4794 11.4685 27.4794 10.8632C27.4794 10.258 26.9887 9.76733 26.3835 9.76733C25.7782 9.76733 25.2876 10.258 25.2876 10.8632C25.2876 11.4685 25.7782 11.9591 26.3835 11.9591Z" fill="black"/>
<path d="M20.1369 17.8084L21.7328 16.9728C21.7417 16.9676 21.7519 16.9649 21.7622 16.9652C21.7725 16.9655 21.7825 16.9686 21.7911 16.9744C21.7997 16.9801 21.8065 16.9881 21.8107 16.9975C21.815 17.007 21.8164 17.0174 21.815 17.0276L21.5068 18.781L22.8766 20.1167L20.9862 20.3906L20.1369 22.103L19.2876 20.3906L17.5068 20.1304C17.4982 20.1256 17.4911 20.1187 17.4861 20.1102C17.4811 20.1018 17.4785 20.0922 17.4785 20.0824C17.4785 20.0726 17.4811 20.063 17.4861 20.0546C17.4911 20.0461 17.4982 20.0392 17.5068 20.0345L18.7945 18.7742L18.4725 16.8906L20.1369 17.8084Z" fill="#A8CBEB"/>
<path d="M8.12323 71.4662C8.72848 71.4662 9.21912 70.9755 9.21912 70.3703C9.21912 69.7651 8.72848 69.2744 8.12323 69.2744C7.51799 69.2744 7.02734 69.7651 7.02734 70.3703C7.02734 70.9755 7.51799 71.4662 8.12323 71.4662Z" fill="black"/>
<path d="M21 85.4726C20.9996 85.0494 21.1624 84.6423 21.4546 84.3361C21.7467 84.0299 22.1458 83.8481 22.5685 83.8288L41.274 82.4178V81.1644C41.274 81.0608 41.2329 80.9615 41.1597 80.8883C41.0864 80.8151 40.9871 80.774 40.8836 80.774H18.6987C18.6426 80.7635 18.5849 80.7659 18.53 80.781C18.475 80.7961 18.4241 80.8235 18.3813 80.8611C18.3384 80.8986 18.3046 80.9455 18.2825 80.998C18.2604 81.0506 18.2504 81.1074 18.2535 81.1644V89.5411H20.9932V85.4726H21Z" fill="#D2E1EF"/>
<path d="M40.8013 89.4109V80.6164C40.8013 80.4856 40.7493 80.3602 40.6569 80.2677C40.5644 80.1752 40.4389 80.1232 40.3082 80.1232H18.1506C18.0198 80.1232 17.8944 80.1752 17.8019 80.2677C17.7094 80.3602 17.6575 80.4856 17.6575 80.6164V89.4041" stroke="black" stroke-width="2.4" stroke-miterlimit="10" stroke-linecap="round"/>
<path d="M50.2398 85.4726C50.2393 85.0494 50.4021 84.6423 50.6943 84.3361C50.9865 84.0299 51.3855 83.8481 51.8083 83.8288L70.548 82.4246V81.1644C70.548 81.0608 70.5069 80.9615 70.4336 80.8883C70.3604 80.8151 70.2611 80.774 70.1576 80.774H47.9453C47.8892 80.7635 47.8315 80.7659 47.7765 80.781C47.7216 80.7961 47.6707 80.8235 47.6278 80.8611C47.585 80.8986 47.5512 80.9455 47.5291 80.998C47.5069 81.0506 47.497 81.1074 47.5 81.1644V89.5411H50.2398V85.4726Z" fill="#D2E1EF"/>
<path d="M47.137 89.4109V80.6164C47.137 80.4856 47.1889 80.3602 47.2814 80.2677C47.3739 80.1752 47.4993 80.1232 47.6301 80.1232H69.7808C69.9116 80.1232 70.037 80.1752 70.1295 80.2677C70.222 80.3602 70.2739 80.4856 70.2739 80.6164V89.4041" stroke="black" stroke-width="2.4" stroke-miterlimit="10" stroke-linecap="round"/>
</svg>
