<svg width="100" height="100" viewBox="0 0 100 100" fill="none" xmlns="http://www.w3.org/2000/svg">
<path d="M83.8844 54.057L61.2297 50.7654L51.0993 30.2391C50.8486 29.7296 50.3301 29.4072 49.761 29.4072C49.1918 29.4072 48.6734 29.7296 48.4227 30.2391L38.2933 50.7654L15.6386 54.057C15.0774 54.1386 14.6097 54.5326 14.4336 55.0729C14.2575 55.6132 14.4048 56.2072 14.8117 56.6032L31.2028 72.5804L27.3341 95.1415C27.2376 95.7017 27.4685 96.2679 27.9282 96.6022C28.3889 96.9356 28.9978 96.9794 29.5003 96.7157L49.76 86.0629L70.0227 96.7157C70.2416 96.8301 70.4794 96.8868 70.7172 96.8868C71.0267 96.8868 71.3341 96.7903 71.5948 96.6022C72.0545 96.2679 72.2844 95.7017 72.1889 95.1415L68.3162 72.5804L84.7093 56.6032C85.1162 56.2072 85.2625 55.6132 85.0874 55.0729C84.9132 54.5326 84.4456 54.1386 83.8844 54.057ZM65.6734 70.9903C65.3212 71.3336 65.161 71.8271 65.2436 72.3117L68.7371 92.6649L50.4565 83.055C50.0207 82.8271 49.5023 82.8271 49.0675 83.055L30.7898 92.6649L34.2794 72.3117C34.362 71.8271 34.2018 71.3336 33.8496 70.9903L19.0635 56.5774L39.5013 53.6082C39.9869 53.5376 40.4078 53.2321 40.6247 52.7923L49.763 34.2749L58.9023 52.7923C59.1192 53.2321 59.5401 53.5376 60.0257 53.6082L80.4635 56.5774L65.6734 70.9903Z" fill="black"/>
<path d="M25.4217 37.8199C25.9829 37.8199 26.5212 37.5015 26.775 36.9592C27.1242 36.2129 26.8008 35.3244 26.0536 34.9751L10.365 27.6448C9.61975 27.2975 8.7302 27.6199 8.38094 28.3661C8.03169 29.1124 8.35507 30.001 9.10233 30.3502L24.7909 37.6806C24.9949 37.7751 25.2098 37.8199 25.4217 37.8199Z" fill="white"/>
<path d="M91.1202 28.365C90.77 27.6188 89.8804 27.2964 89.1362 27.6437L73.4476 34.974C72.7003 35.3242 72.378 36.2118 72.7262 36.9581C72.9799 37.5004 73.5183 37.8188 74.0794 37.8188C74.2914 37.8188 74.5063 37.774 74.7103 37.6785L90.3988 30.3481C91.1471 29.9999 91.4695 29.1113 91.1202 28.365Z" fill="white"/>
<path d="M50.7621 22.8692C51.5859 22.8692 52.2546 22.2005 52.2546 21.3766V4.10997C52.2546 3.28509 51.5859 2.61743 50.7621 2.61743C49.9382 2.61743 49.2695 3.28509 49.2695 4.10997V21.3766C49.2695 22.2005 49.9382 22.8692 50.7621 22.8692Z" fill="white"/>
</svg>
