<svg width="100" height="100" viewBox="0 0 100 100" fill="none" xmlns="http://www.w3.org/2000/svg">
<g clip-path="url(#clip0_9:196)">
<path d="M98.3482 65.8005C95.6886 62.0567 91.5054 59.8274 86.969 59.6481C83.9272 49.9268 75.4066 42.5247 64.756 41.3284V35.3119H67.6819C82.2006 35.3119 94.0132 23.4993 94.0132 8.98056V6.05469H85.2356C74.7215 6.05469 65.6281 12.2505 61.4105 21.1823C57.7484 15.6006 51.4359 11.9064 44.2757 11.9064H35.4988V14.8315C35.4988 26.1246 44.6861 35.3119 55.9784 35.3119H58.9043V41.3315C51.4763 42.1707 44.6838 46.167 40.3419 52.2804C33.8448 50.6973 26.7563 52.2232 21.579 56.7787L19.3764 58.7173H0V87.9745H20.2873L65.5563 93.9575L100 68.1244L98.3482 65.8005ZM85.2356 11.9041H87.9532C86.5295 21.8163 77.9808 29.4601 67.6819 29.4601H64.9643C66.3879 19.5488 74.9367 11.9041 85.2356 11.9041ZM55.9784 29.4601C48.9143 29.4601 43.0038 24.4263 41.6443 17.7574H44.2757C51.3405 17.7574 57.251 22.7913 58.6105 29.4601H55.9784ZM17.5545 82.1236H5.85175V64.5691H17.5545V82.1236ZM61.8301 47.0146C70.5406 47.0146 78.2639 52.5986 81.1279 60.6247C80.1712 60.9962 79.2473 61.467 78.3737 62.0422L69.1292 68.045C70.0745 66.1102 70.607 63.9381 70.607 61.6432V58.7173H52.3354C51.6228 58.7173 50.9369 58.4587 50.4021 57.988L49.028 56.7787C48.0743 55.9395 47.0459 55.1971 45.9595 54.5555C49.8177 49.8428 55.6526 47.0146 61.8301 47.0146ZM63.9557 87.8433L23.4055 82.4844V62.9662L25.4448 61.1717C30.9731 56.3065 39.6339 56.3065 45.163 61.1717L46.537 62.381C48.14 63.7917 50.1991 64.5691 52.3354 64.5691H64.2548C63.047 67.9749 59.7931 70.4201 55.9784 70.4201H41.3498V76.2718H67.2035L81.5765 66.9395C84.7198 64.8689 88.6765 65.0543 91.5565 67.1432L63.9557 87.8433Z" fill="black"/>
</g>
<defs>
<clipPath id="clip0_9:196">
<rect width="100" height="100" fill="white"/>
</clipPath>
</defs>
</svg>
