<svg width="50" height="50" viewBox="0 0 50 50" fill="none" xmlns="http://www.w3.org/2000/svg">
<path fill-rule="evenodd" clip-rule="evenodd" d="M0 25C0 38.8071 11.1929 50 25 50C38.8071 50 50 38.8071 50 25C50 11.1929 38.8071 0 25 0C11.1929 0 0 11.1929 0 25ZM40.6897 24.0432C40.6865 32.2378 34.0203 38.9055 25.8241 38.9089H25.8179C23.3299 38.908 20.8852 38.2837 18.7139 37.0995L10.8333 39.1667L12.9423 31.4633C11.6414 29.2089 10.9569 26.6516 10.9579 24.0315C10.9612 15.8351 17.63 9.16667 25.8239 9.16667C29.8006 9.16839 33.5331 10.7166 36.3398 13.5265C39.1465 16.3363 40.6914 20.0711 40.6897 24.0432Z" fill="black"/>
<path fill-rule="evenodd" clip-rule="evenodd" d="M14.4027 35.635L19.0792 34.4082L19.5303 34.676C21.4274 35.8018 23.602 36.3974 25.8192 36.3983H25.8242C32.6344 36.3983 38.1771 30.8554 38.1799 24.0424C38.1811 20.7408 36.8972 17.6366 34.5644 15.301C32.2316 12.9655 29.1293 11.6786 25.8291 11.6775C19.0135 11.6775 13.4707 17.2199 13.468 24.0324C13.4671 26.3671 14.1203 28.6407 15.3572 30.6079L15.6509 31.0754L14.4027 35.635ZM32.8047 27.2438C33.0637 27.3691 33.2388 27.4535 33.3134 27.5782C33.4062 27.7331 33.4062 28.4769 33.0969 29.3447C32.7872 30.2123 31.3033 31.0042 30.5896 31.1107C29.9497 31.2065 29.1399 31.2463 28.2501 30.9635C27.7105 30.7924 27.0187 30.5638 26.1325 30.1811C22.6503 28.6775 20.297 25.3025 19.8523 24.6646C19.8211 24.6199 19.7993 24.5886 19.7872 24.5725L19.7842 24.5684C19.5876 24.3061 18.2704 22.5487 18.2704 20.73C18.2704 19.0191 19.1109 18.1222 19.4978 17.7094C19.5243 17.6811 19.5486 17.6551 19.5705 17.6312C19.9109 17.2594 20.3134 17.1664 20.561 17.1664C20.8086 17.1664 21.0565 17.1687 21.2729 17.1796C21.2996 17.1809 21.3274 17.1807 21.3561 17.1806C21.5726 17.1793 21.8424 17.1777 22.1086 17.8172C22.211 18.0633 22.3609 18.4281 22.519 18.8128C22.8385 19.591 23.1918 20.4508 23.2539 20.5752C23.3468 20.7611 23.4086 20.978 23.2848 21.226C23.2662 21.2632 23.2491 21.2983 23.2326 21.3318C23.1397 21.5217 23.0712 21.6613 22.9134 21.8456C22.8514 21.9181 22.7872 21.9962 22.723 22.0743C22.5953 22.2299 22.4675 22.3855 22.3562 22.4963C22.1703 22.6816 21.9767 22.8826 22.1933 23.2545C22.41 23.6263 23.1555 24.8426 24.2598 25.8276C25.4468 26.8863 26.4784 27.3338 27.0014 27.5607C27.1034 27.605 27.1861 27.6408 27.2469 27.6712C27.6181 27.8572 27.8349 27.8261 28.0516 27.5782C28.2682 27.3304 28.9801 26.4936 29.2277 26.1218C29.4752 25.7501 29.723 25.812 30.0634 25.9359C30.404 26.06 32.2301 26.9584 32.6016 27.1444C32.6741 27.1807 32.7419 27.2134 32.8047 27.2438Z" fill="black"/>
</svg>
