<svg width="577" height="24" viewBox="0 0 577 24" fill="none" xmlns="http://www.w3.org/2000/svg">
<path d="M0.93934 10.9393C0.353553 11.5251 0.353553 12.4749 0.93934 13.0607L10.4853 22.6066C11.0711 23.1924 12.0208 23.1924 12.6066 22.6066C13.1924 22.0208 13.1924 21.0711 12.6066 20.4853L4.12132 12L12.6066 3.51472C13.1924 2.92893 13.1924 1.97919 12.6066 1.3934C12.0208 0.807611 11.0711 0.807611 10.4853 1.3934L0.93934 10.9393ZM576.061 13.0607C576.646 12.4749 576.646 11.5251 576.061 10.9393L566.515 1.3934C565.929 0.807611 564.979 0.807611 564.393 1.3934C563.808 1.97919 563.808 2.92893 564.393 3.51472L572.879 12L564.393 20.4853C563.808 21.0711 563.808 22.0208 564.393 22.6066C564.979 23.1924 565.929 23.1924 566.515 22.6066L576.061 13.0607ZM2 13.5H575V10.5H2V13.5Z" fill="#F8BD59"/>
</svg>
